G04 #@! TF.GenerationSoftware,KiCad,Pcbnew,5.0.2-5.fc29*
G04 #@! TF.CreationDate,2019-09-28T03:24:05+07:00*
G04 #@! TF.ProjectId,VibrateInsectBoard,56696272-6174-4654-996e-73656374426f,rev?*
G04 #@! TF.SameCoordinates,Original*
G04 #@! TF.FileFunction,Soldermask,Bot*
G04 #@! TF.FilePolarity,Negative*
%FSLAX45Y45*%
G04 Gerber Fmt 4.5, Leading zero omitted, Abs format (unit mm)*
G04 Created by KiCad (PCBNEW 5.0.2-5.fc29) date Sat 28 Sep 2019 03:24:05 AM +07*
%MOMM*%
%LPD*%
G01*
G04 APERTURE LIST*
%ADD10C,0.100000*%
G04 APERTURE END LIST*
D10*
G36*
X16526281Y-11368362D02*
X16542678Y-11375154D01*
X16557435Y-11385015D01*
X16569985Y-11397565D01*
X16579846Y-11412322D01*
X16586638Y-11428719D01*
X16590100Y-11446126D01*
X16590100Y-11463874D01*
X16586638Y-11481281D01*
X16579846Y-11497678D01*
X16569985Y-11512435D01*
X16557435Y-11524985D01*
X16542678Y-11534846D01*
X16526281Y-11541638D01*
X16508874Y-11545100D01*
X16491126Y-11545100D01*
X16473719Y-11541638D01*
X16457322Y-11534846D01*
X16442565Y-11524985D01*
X16430015Y-11512435D01*
X16420154Y-11497678D01*
X16413362Y-11481281D01*
X16409900Y-11463874D01*
X16409900Y-11446126D01*
X16413362Y-11428719D01*
X16420154Y-11412322D01*
X16430015Y-11397565D01*
X16442565Y-11385015D01*
X16457322Y-11375154D01*
X16473719Y-11368362D01*
X16491126Y-11364900D01*
X16508874Y-11364900D01*
X16526281Y-11368362D01*
X16526281Y-11368362D01*
G37*
G36*
X16526281Y-9363362D02*
X16542678Y-9370154D01*
X16557435Y-9380015D01*
X16569985Y-9392565D01*
X16579846Y-9407322D01*
X16586638Y-9423719D01*
X16590100Y-9441126D01*
X16590100Y-9458874D01*
X16586638Y-9476281D01*
X16579846Y-9492678D01*
X16569985Y-9507435D01*
X16557435Y-9519985D01*
X16542678Y-9529846D01*
X16526281Y-9536638D01*
X16508874Y-9540100D01*
X16491126Y-9540100D01*
X16473719Y-9536638D01*
X16457322Y-9529846D01*
X16442565Y-9519985D01*
X16430015Y-9507435D01*
X16420154Y-9492678D01*
X16413362Y-9476281D01*
X16409900Y-9458874D01*
X16409900Y-9441126D01*
X16413362Y-9423719D01*
X16420154Y-9407322D01*
X16430015Y-9392565D01*
X16442565Y-9380015D01*
X16457322Y-9370154D01*
X16473719Y-9363362D01*
X16491126Y-9359900D01*
X16508874Y-9359900D01*
X16526281Y-9363362D01*
X16526281Y-9363362D01*
G37*
G36*
X15952010Y-8710959D02*
X15968863Y-8717939D01*
X15984029Y-8728073D01*
X15996927Y-8740971D01*
X16007061Y-8756137D01*
X16014041Y-8772990D01*
X16017600Y-8790880D01*
X16017600Y-8809120D01*
X16014041Y-8827010D01*
X16007061Y-8843863D01*
X15996927Y-8859029D01*
X15984029Y-8871927D01*
X15968863Y-8882061D01*
X15952010Y-8889042D01*
X15934120Y-8892600D01*
X15915880Y-8892600D01*
X15897990Y-8889042D01*
X15881137Y-8882061D01*
X15865971Y-8871927D01*
X15853073Y-8859029D01*
X15842939Y-8843863D01*
X15835958Y-8827010D01*
X15832400Y-8809120D01*
X15832400Y-8790880D01*
X15835958Y-8772990D01*
X15842939Y-8756137D01*
X15853073Y-8740971D01*
X15865971Y-8728073D01*
X15881137Y-8717939D01*
X15897990Y-8710959D01*
X15915880Y-8707400D01*
X15934120Y-8707400D01*
X15952010Y-8710959D01*
X15952010Y-8710959D01*
G37*
G36*
X17102010Y-8710959D02*
X17118863Y-8717939D01*
X17134029Y-8728073D01*
X17146927Y-8740971D01*
X17157061Y-8756137D01*
X17164042Y-8772990D01*
X17167600Y-8790880D01*
X17167600Y-8809120D01*
X17164042Y-8827010D01*
X17157061Y-8843863D01*
X17146927Y-8859029D01*
X17134029Y-8871927D01*
X17118863Y-8882061D01*
X17102010Y-8889042D01*
X17084120Y-8892600D01*
X17065880Y-8892600D01*
X17047990Y-8889042D01*
X17031137Y-8882061D01*
X17015971Y-8871927D01*
X17003073Y-8859029D01*
X16992939Y-8843863D01*
X16985959Y-8827010D01*
X16982400Y-8809120D01*
X16982400Y-8790880D01*
X16985959Y-8772990D01*
X16992939Y-8756137D01*
X17003073Y-8740971D01*
X17015971Y-8728073D01*
X17031137Y-8717939D01*
X17047990Y-8710959D01*
X17065880Y-8707400D01*
X17084120Y-8707400D01*
X17102010Y-8710959D01*
X17102010Y-8710959D01*
G37*
G36*
X16224823Y-8718170D02*
X16240310Y-8724585D01*
X16254248Y-8733899D01*
X16266101Y-8745752D01*
X16275415Y-8759690D01*
X16281830Y-8775177D01*
X16285100Y-8791618D01*
X16285100Y-8808382D01*
X16281830Y-8824823D01*
X16275415Y-8840310D01*
X16266101Y-8854248D01*
X16254248Y-8866102D01*
X16240310Y-8875415D01*
X16224823Y-8881830D01*
X16208382Y-8885100D01*
X16191618Y-8885100D01*
X16175177Y-8881830D01*
X16159690Y-8875415D01*
X16145752Y-8866102D01*
X16133898Y-8854248D01*
X16124585Y-8840310D01*
X16118170Y-8824823D01*
X16114900Y-8808382D01*
X16114900Y-8791618D01*
X16118170Y-8775177D01*
X16124585Y-8759690D01*
X16133898Y-8745752D01*
X16145752Y-8733899D01*
X16159690Y-8724585D01*
X16175177Y-8718170D01*
X16191618Y-8714900D01*
X16208382Y-8714900D01*
X16224823Y-8718170D01*
X16224823Y-8718170D01*
G37*
G36*
X16524823Y-8718170D02*
X16540310Y-8724585D01*
X16554248Y-8733899D01*
X16566101Y-8745752D01*
X16575415Y-8759690D01*
X16581830Y-8775177D01*
X16585100Y-8791618D01*
X16585100Y-8808382D01*
X16581830Y-8824823D01*
X16575415Y-8840310D01*
X16566101Y-8854248D01*
X16554248Y-8866102D01*
X16540310Y-8875415D01*
X16524823Y-8881830D01*
X16508382Y-8885100D01*
X16491618Y-8885100D01*
X16475177Y-8881830D01*
X16459690Y-8875415D01*
X16445752Y-8866102D01*
X16433898Y-8854248D01*
X16424585Y-8840310D01*
X16418170Y-8824823D01*
X16414900Y-8808382D01*
X16414900Y-8791618D01*
X16418170Y-8775177D01*
X16424585Y-8759690D01*
X16433898Y-8745752D01*
X16445752Y-8733899D01*
X16459690Y-8724585D01*
X16475177Y-8718170D01*
X16491618Y-8714900D01*
X16508382Y-8714900D01*
X16524823Y-8718170D01*
X16524823Y-8718170D01*
G37*
G36*
X16824823Y-8718170D02*
X16840310Y-8724585D01*
X16854248Y-8733899D01*
X16866102Y-8745752D01*
X16875415Y-8759690D01*
X16881830Y-8775177D01*
X16885100Y-8791618D01*
X16885100Y-8808382D01*
X16881830Y-8824823D01*
X16875415Y-8840310D01*
X16866102Y-8854248D01*
X16854248Y-8866102D01*
X16840310Y-8875415D01*
X16824823Y-8881830D01*
X16808382Y-8885100D01*
X16791618Y-8885100D01*
X16775177Y-8881830D01*
X16759690Y-8875415D01*
X16745752Y-8866102D01*
X16733898Y-8854248D01*
X16724585Y-8840310D01*
X16718170Y-8824823D01*
X16714900Y-8808382D01*
X16714900Y-8791618D01*
X16718170Y-8775177D01*
X16724585Y-8759690D01*
X16733898Y-8745752D01*
X16745752Y-8733899D01*
X16759690Y-8724585D01*
X16775177Y-8718170D01*
X16791618Y-8714900D01*
X16808382Y-8714900D01*
X16824823Y-8718170D01*
X16824823Y-8718170D01*
G37*
G36*
X16365864Y-8222978D02*
X16380441Y-8229016D01*
X16393561Y-8237782D01*
X16404718Y-8248939D01*
X16413484Y-8262058D01*
X16415851Y-8267775D01*
X16417007Y-8269936D01*
X16418561Y-8271830D01*
X16420455Y-8273384D01*
X16422616Y-8274540D01*
X16424961Y-8275251D01*
X16427400Y-8275491D01*
X16429839Y-8275251D01*
X16432183Y-8274540D01*
X16434345Y-8273384D01*
X16436239Y-8271830D01*
X16437793Y-8269936D01*
X16438948Y-8267775D01*
X16439660Y-8265430D01*
X16439900Y-8262991D01*
X16439900Y-8219900D01*
X16560100Y-8219900D01*
X16560100Y-8262991D01*
X16560340Y-8265430D01*
X16561051Y-8267775D01*
X16562207Y-8269936D01*
X16563761Y-8271830D01*
X16565655Y-8273384D01*
X16567816Y-8274540D01*
X16570161Y-8275251D01*
X16572600Y-8275491D01*
X16575039Y-8275251D01*
X16577383Y-8274540D01*
X16579545Y-8273384D01*
X16581439Y-8271830D01*
X16582993Y-8269936D01*
X16584148Y-8267775D01*
X16586516Y-8262058D01*
X16595282Y-8248939D01*
X16606439Y-8237782D01*
X16619558Y-8229016D01*
X16634136Y-8222978D01*
X16649611Y-8219900D01*
X16665389Y-8219900D01*
X16680864Y-8222978D01*
X16695441Y-8229016D01*
X16708561Y-8237782D01*
X16719718Y-8248939D01*
X16728484Y-8262058D01*
X16734522Y-8276636D01*
X16737600Y-8292111D01*
X16737600Y-8307889D01*
X16734522Y-8323364D01*
X16728484Y-8337941D01*
X16719718Y-8351061D01*
X16708561Y-8362218D01*
X16695441Y-8370984D01*
X16680864Y-8377022D01*
X16665389Y-8380100D01*
X16649611Y-8380100D01*
X16634136Y-8377022D01*
X16619558Y-8370984D01*
X16606439Y-8362218D01*
X16595282Y-8351061D01*
X16586516Y-8337941D01*
X16584148Y-8332225D01*
X16582993Y-8330064D01*
X16581439Y-8328170D01*
X16579545Y-8326615D01*
X16577383Y-8325460D01*
X16575039Y-8324749D01*
X16572600Y-8324509D01*
X16570161Y-8324749D01*
X16567816Y-8325460D01*
X16565655Y-8326615D01*
X16563761Y-8328170D01*
X16562207Y-8330064D01*
X16561051Y-8332225D01*
X16560340Y-8334570D01*
X16560100Y-8337009D01*
X16560100Y-8380100D01*
X16439900Y-8380100D01*
X16439900Y-8337009D01*
X16439660Y-8334570D01*
X16438948Y-8332225D01*
X16437793Y-8330064D01*
X16436239Y-8328170D01*
X16434345Y-8326615D01*
X16432183Y-8325460D01*
X16429839Y-8324749D01*
X16427400Y-8324509D01*
X16424961Y-8324749D01*
X16422616Y-8325460D01*
X16420455Y-8326615D01*
X16418561Y-8328170D01*
X16417007Y-8330064D01*
X16415851Y-8332225D01*
X16413484Y-8337941D01*
X16404718Y-8351061D01*
X16393561Y-8362218D01*
X16380441Y-8370984D01*
X16365864Y-8377022D01*
X16350389Y-8380100D01*
X16334611Y-8380100D01*
X16319136Y-8377022D01*
X16304558Y-8370984D01*
X16291439Y-8362218D01*
X16280282Y-8351061D01*
X16271516Y-8337941D01*
X16265478Y-8323364D01*
X16262400Y-8307889D01*
X16262400Y-8292111D01*
X16265478Y-8276636D01*
X16271516Y-8262058D01*
X16280282Y-8248939D01*
X16291439Y-8237782D01*
X16304558Y-8229016D01*
X16319136Y-8222978D01*
X16334611Y-8219900D01*
X16350389Y-8219900D01*
X16365864Y-8222978D01*
X16365864Y-8222978D01*
G37*
G36*
X16567600Y-7355100D02*
X16432400Y-7355100D01*
X16432400Y-7194900D01*
X16567600Y-7194900D01*
X16567600Y-7355100D01*
X16567600Y-7355100D01*
G37*
M02*
